<?xml version="1.0" encoding="UTF-8"?>
<svg version="1.1" xmlns="http://www.w3.org/2000/svg" width="391" height="203">
<path d="M0 0 C2.31 0 4.62 0 7 0 C8.91219585 1.91219585 8.24435298 5.33645504 8.31640625 7.87890625 C8.33718735 8.5655687 8.35796844 9.25223114 8.37937927 9.95970154 C8.44494143 12.16052935 8.50379015 14.36147975 8.5625 16.5625 C8.60567892 18.05144514 8.649293 19.54037773 8.69335938 21.02929688 C8.8006293 24.68606553 8.90187772 28.34297318 9 32 C9.54269531 31.65066406 10.08539063 31.30132812 10.64453125 30.94140625 C11.71767578 30.25884766 11.71767578 30.25884766 12.8125 29.5625 C13.52019531 29.11003906 14.22789063 28.65757813 14.95703125 28.19140625 C20.46296875 24.98048668 26.82888739 25.31769025 33 26 C36.99454412 27.8425019 39.46672674 30.91751624 41 35 C41.22491765 37.76425791 41.34842459 40.43690099 41.37890625 43.203125 C41.39590073 43.99974548 41.4128952 44.79636597 41.43040466 45.61712646 C41.48342331 48.16133713 41.52372859 50.70553559 41.5625 53.25 C41.60668851 55.78009398 41.65368948 58.31007332 41.70530701 60.84002686 C41.7367949 62.41159424 41.76382158 63.9832599 41.78553772 65.55499268 C41.87611303 70.43801302 42.32128992 75.16252381 43 80 C39.77626323 82.14915785 38.73296326 82.38286803 35 82 C32.14306398 79.14306398 32.68403208 76.29238135 32.65625 72.46484375 C32.6416272 71.71215714 32.62700439 70.95947052 32.61193848 70.18397522 C32.56537042 67.76853814 32.53126316 65.35318069 32.5 62.9375 C33.48106005 48.02355375 33.48106005 48.02355375 29 35 C21.86676753 34.22182918 17.06005099 36.28286835 11 40 C7.94919054 43.05080946 8.64211292 46.62810779 8.5859375 50.7265625 C8.56657135 51.58937836 8.5472052 52.45219421 8.5272522 53.34115601 C8.46737796 56.10233616 8.42104002 58.86355784 8.375 61.625 C8.33682741 63.49481005 8.29777611 65.36460238 8.2578125 67.234375 C8.16167008 71.82277309 8.07766834 76.41125351 8 81 C5.36 81 2.72 81 0 81 C0 54.27 0 27.54 0 0 Z " fill="#0959D1" transform="translate(0,75)"/>
<path d="M0 0 C5.95987482 3.49792244 9.1698928 8.3514659 11.12890625 14.859375 C12.08120085 19.68833343 12.88142184 25.86215632 10.625 30.375 C-0.595 30.375 -11.815 30.375 -23.375 30.375 C-20.45873891 41.23196839 -20.45873891 41.23196839 -17.3125 45.125 C-12.09951333 47.3432922 -6.43632539 47.31068749 -1.0234375 45.65625 C-0.33507812 45.3778125 0.35328125 45.099375 1.0625 44.8125 C4.66834639 43.35750935 5.20868829 43.24123502 8.625 44.375 C9.12 47.345 9.12 47.345 9.625 50.375 C8.37764433 51.0259259 7.12698168 51.67051669 5.875 52.3125 C5.17890625 52.67214844 4.4828125 53.03179687 3.765625 53.40234375 C-0.73764099 55.44853578 -4.80906569 55.56582713 -9.75 55.625 C-11.03648437 55.65078125 -12.32296875 55.6765625 -13.6484375 55.703125 C-19.03339551 55.22897775 -23.02150489 53.35636407 -26.5625 49.25 C-33.57279309 40.32613609 -33.4905458 29.26767352 -32.375 18.375 C-30.89408231 11.64811963 -27.59126164 5.91087969 -22.375 1.375 C-15.62570414 -2.72751317 -7.24139526 -3.27163226 0 0 Z M-19.375 9.375 C-22.59973449 14.2677006 -22.59498257 17.13486059 -23.375 23.375 C-14.795 23.375 -6.215 23.375 2.625 23.375 C2.01652438 15.09737189 2.01652438 15.09737189 -1.375 8.375 C-8.06959646 3.9119357 -13.24942943 4.20229596 -19.375 9.375 Z " fill="#0959D1" transform="translate(189.375,17.625)"/>
<path d="M0 0 C5.52284067 3.46783019 7.87917504 8.35731888 9.75 14.4375 C10.23408948 19.39941717 10.58757389 24.23727833 9 29 C-2.22 29 -13.44 29 -25 29 C-23.16895916 39.01091389 -23.16895916 39.01091389 -17 45 C-9.53989363 45.99140887 -3.68555518 45.27165466 3 42 C5.4375 42.3125 5.4375 42.3125 7 43 C7.495 45.97 7.495 45.97 8 49 C6.75264433 49.6509259 5.50198168 50.29551669 4.25 50.9375 C3.55390625 51.29714844 2.8578125 51.65679687 2.140625 52.02734375 C-4.94159237 55.24535858 -15.24243014 55.43637971 -22.65234375 53.19921875 C-27.92971212 50.25159074 -30.79749314 45.52044638 -33 40 C-35.40171053 31.24981896 -35.63226198 18.30194407 -32.10546875 9.890625 C-24.95696062 -2.33509209 -12.73875479 -6.99382616 0 0 Z M-20 7 C-24.02988187 12.55470203 -24.06350917 14.50807339 -25 22 C-16.42 22 -7.84 22 1 22 C0.32803801 13.31878842 0.32803801 13.31878842 -4 7 C-6.55317318 5.03602063 -8.26126995 4.11365078 -11.4375 3.625 C-14.90355556 4.13222764 -17.06300835 5.0628353 -20 7 Z " fill="#0959D1" transform="translate(381,103)"/>
<path d="M0 0 C5.05902782 5.97885106 5.54357316 12.83177765 5.6796875 20.3359375 C5.70475372 21.25210846 5.72981995 22.16827942 5.75564575 23.11221313 C5.80431914 25.03314164 5.84595733 26.95426022 5.88085938 28.87548828 C5.93775106 31.82551842 6.02611293 34.77350501 6.1171875 37.72265625 C6.1607366 39.59370713 6.20246857 41.46480139 6.2421875 43.3359375 C6.27013397 44.21921722 6.29808044 45.10249695 6.32687378 46.01254272 C6.35888672 48.48193359 6.35888672 48.48193359 6.0625 52.4375 C3.0625 54.4375 3.0625 54.4375 -0.0625 54.125 C-2.9375 53.4375 -2.9375 53.4375 -3.9375 52.4375 C-4.08558784 49.54062708 -4.17267173 46.66465928 -4.21875 43.765625 C-4.23715942 42.89105652 -4.25556885 42.01648804 -4.27453613 41.11541748 C-4.33347508 38.30618223 -4.38616734 35.49688391 -4.4375 32.6875 C-4.50529397 29.00508388 -4.57907777 25.32285507 -4.65625 21.640625 C-4.66982544 20.79461731 -4.68340088 19.94860962 -4.6973877 19.07696533 C-4.78121333 15.07949267 -4.95949681 11.33961395 -5.9375 7.4375 C-7.55877934 7.27105687 -9.18545 7.15714834 -10.8125 7.0625 C-11.71742187 6.99289063 -12.62234375 6.92328125 -13.5546875 6.8515625 C-19.1362365 7.81834351 -23.27934789 8.88043385 -26.9375 13.4375 C-28.79588972 19.97178568 -28.19688585 27.09204897 -28.0625 33.8125 C-28.06055719 35.71224037 -28.06311284 37.61199102 -28.0703125 39.51171875 C-28.07812393 44.15538045 -28.02433494 48.79468271 -27.9375 53.4375 C-30.9075 53.4375 -33.8775 53.4375 -36.9375 53.4375 C-36.9375 35.2875 -36.9375 17.1375 -36.9375 -1.5625 C-34.6275 -1.5625 -32.3175 -1.5625 -29.9375 -1.5625 C-28 0.9375 -28 0.9375 -26.9375 3.4375 C-26.26203125 3.08816406 -25.5865625 2.73882812 -24.890625 2.37890625 C-23.55257812 1.69634766 -23.55257812 1.69634766 -22.1875 1 C-21.30578125 0.54753906 -20.4240625 0.09507813 -19.515625 -0.37109375 C-13.12321959 -3.32515989 -6.28593604 -3.343583 0 0 Z " fill="#0959D1" transform="translate(137.9375,18.5625)"/>
<path d="M0 0 C3.75057826 3.10762199 5.20248258 7.15341293 6.1875 11.8125 C6.31023658 13.20499119 6.3922722 14.60147509 6.44042969 15.99853516 C6.47005798 16.81262848 6.49968628 17.6267218 6.5302124 18.46548462 C6.55633606 19.33539032 6.58245972 20.20529602 6.609375 21.1015625 C6.63727112 22.0011972 6.66516724 22.90083191 6.69390869 23.82772827 C6.75020179 25.72557156 6.80383128 27.62349548 6.85498047 29.52148438 C6.93740722 32.43422146 7.04084545 35.345765 7.14453125 38.2578125 C7.19661571 40.10152615 7.2474404 41.9452759 7.296875 43.7890625 C7.33109558 44.66301666 7.36531616 45.53697083 7.40057373 46.43740845 C7.45214844 48.88525391 7.45214844 48.88525391 7.1875 52.8125 C3.96376323 54.96165785 2.92046326 55.19536803 -0.8125 54.8125 C-3.83846225 51.78653775 -3.13034274 48.32211352 -3.15625 44.26171875 C-3.1708728 43.41076126 -3.18549561 42.55980377 -3.20056152 41.68305969 C-3.24715553 38.95542107 -3.28128609 36.22785542 -3.3125 33.5 C-3.35370056 29.92030561 -3.40744856 26.34111898 -3.46875 22.76171875 C-3.4740271 21.94072189 -3.4793042 21.11972504 -3.48474121 20.27384949 C-3.51757522 13.51127964 -3.51757522 13.51127964 -6.8125 7.8125 C-13.22196861 7.10033682 -18.16303849 7.75080468 -23.6887207 11.21557617 C-28.65919684 17.29339599 -27.08661546 26.7304416 -26.9375 34.1875 C-26.93555719 36.08724037 -26.93811284 37.98699102 -26.9453125 39.88671875 C-26.95312393 44.53038045 -26.89933494 49.16968271 -26.8125 53.8125 C-29.7825 53.8125 -32.7525 53.8125 -35.8125 53.8125 C-35.8125 35.6625 -35.8125 17.5125 -35.8125 -1.1875 C-29.8125 -1.1875 -29.8125 -1.1875 -28 0.1875 C-26.8125 1.8125 -26.8125 1.8125 -25.8125 3.8125 C-25.14863281 3.46316406 -24.48476563 3.11382812 -23.80078125 2.75390625 C-22.47626953 2.07134766 -22.47626953 2.07134766 -21.125 1.375 C-20.25488281 0.92253906 -19.38476562 0.47007813 -18.48828125 0.00390625 C-12.19274352 -2.79921639 -6.30403473 -2.66170355 0 0 Z " fill="#0959D1" transform="translate(326.8125,102.1875)"/>
<path d="M0 0 C3.2221279 1.72823223 4.57672978 3.62929102 6.640625 6.6328125 C7.29160156 7.56609375 7.94257813 8.499375 8.61328125 9.4609375 C10.6096285 12.42966064 12.5987599 15.40274389 14.578125 18.3828125 C14.86945313 17.83753906 15.16078125 17.29226562 15.4609375 16.73046875 C16.80230556 14.2628577 18.189012 11.82383956 19.578125 9.3828125 C20.03574219 8.52429687 20.49335938 7.66578125 20.96484375 6.78125 C22.35908181 4.37475691 23.6074748 2.34891154 25.578125 0.3828125 C28.58868772 -0.4011315 30.43565371 -0.10481236 33.578125 0.3828125 C34.073125 1.3728125 34.073125 1.3728125 34.578125 2.3828125 C33.62182617 4.30639648 33.62182617 4.30639648 32.12109375 6.62890625 C31.58548828 7.46615234 31.04988281 8.30339844 30.49804688 9.16601562 C29.92634766 10.04193359 29.35464844 10.91785156 28.765625 11.8203125 C27.92547852 13.12838867 27.92547852 13.12838867 27.06835938 14.46289062 C24.9299335 17.786776 22.77050542 21.09424187 20.578125 24.3828125 C20.90911996 28.14950452 22.17102288 30.73710409 24.1953125 33.88671875 C24.71996094 34.70978516 25.24460938 35.53285156 25.78515625 36.38085938 C26.61080078 37.65026367 26.61080078 37.65026367 27.453125 38.9453125 C27.99582031 39.79544922 28.53851563 40.64558594 29.09765625 41.52148438 C32.02286228 46.12962503 32.02286228 46.12962503 35.32080078 50.46850586 C35.73571777 51.10022705 36.15063477 51.73194824 36.578125 52.3828125 C36.248125 53.3728125 35.918125 54.3628125 35.578125 55.3828125 C32.328125 56.1328125 32.328125 56.1328125 28.578125 56.3828125 C24.29889194 53.10206716 21.67229568 48.13421649 18.828125 43.6328125 C18.32152344 42.84003906 17.81492188 42.04726563 17.29296875 41.23046875 C16.05010808 39.28410204 14.81201214 37.33487544 13.578125 35.3828125 C9.93598439 40.44732754 6.49911618 45.4610701 3.515625 50.9453125 C1.00827206 55.22256163 1.00827206 55.22256163 -2.609375 56.5703125 C-5.421875 56.3828125 -5.421875 56.3828125 -8.421875 55.3828125 C-7.79306888 52.26841381 -6.73807092 49.98939173 -5.05859375 47.30078125 C-4.58357422 46.53314453 -4.10855469 45.76550781 -3.61914062 44.97460938 C-3.12091797 44.18119141 -2.62269531 43.38777344 -2.109375 42.5703125 C-1.13315656 41.00189797 -0.15788222 39.43289539 0.81640625 37.86328125 C1.28385254 37.11095215 1.75129883 36.35862305 2.23291016 35.58349609 C4.08464154 32.55418453 5.83854044 29.47770284 7.578125 26.3828125 C7.12373047 25.69654785 6.66933594 25.0102832 6.20117188 24.30322266 C4.15542449 21.2078495 2.11669896 18.10791417 0.078125 15.0078125 C-0.63730469 13.92757813 -1.35273438 12.84734375 -2.08984375 11.734375 C-2.76660156 10.703125 -3.44335938 9.671875 -4.140625 8.609375 C-5.08325195 7.17972412 -5.08325195 7.17972412 -6.04492188 5.72119141 C-7.421875 3.3828125 -7.421875 3.3828125 -7.421875 1.3828125 C-4.61847624 -0.05893543 -3.11178187 -0.79300248 0 0 Z " fill="#0959D1" transform="translate(217.421875,16.6171875)"/>
<path d="M0 0 C5.09029944 -0.0740421 10.18028692 -0.12855008 15.27099609 -0.16479492 C17.00347349 -0.1799009 18.73591254 -0.20038694 20.46826172 -0.22631836 C22.95549978 -0.26262321 25.44223326 -0.27970765 27.9296875 -0.29296875 C29.09538773 -0.31619453 29.09538773 -0.31619453 30.28463745 -0.33988953 C32.46826172 -0.34057617 32.46826172 -0.34057617 36 0 C38 3 38 3 37.94921875 6.234375 C36.77783141 10.88136019 34.78308247 13.57415104 31.8125 17.25 C30.72655638 18.64220974 29.64198211 20.03548839 28.55859375 21.4296875 C27.98351074 22.1628418 27.40842773 22.89599609 26.81591797 23.65136719 C23.58489568 27.83023711 20.48884141 32.10853013 17.375 36.375 C16.19710828 37.98829183 15.01754981 39.60036872 13.8359375 41.2109375 C13.08642822 42.23646729 13.08642822 42.23646729 12.32177734 43.28271484 C11 45 11 45 9 47 C12.14581302 47.02948491 15.29158963 47.04695916 18.4375 47.0625 C19.75524414 47.07506836 19.75524414 47.07506836 21.09960938 47.08789062 C26.81783077 47.10899107 32.32800815 46.73280057 38 46 C38.625 48.8125 38.625 48.8125 39 52 C38.34 52.99 37.68 53.98 37 55 C34.09165115 55.26660183 31.39861732 55.34779124 28.4921875 55.29296875 C27.65156769 55.28872391 26.81094788 55.28447906 25.94485474 55.28010559 C23.25458007 55.26328532 20.56504901 55.22562781 17.875 55.1875 C16.05339622 55.17245745 14.23178072 55.1587683 12.41015625 55.14648438 C7.93981676 55.11337094 3.47003454 55.06156637 -1 55 C-2.48516419 52.02967162 -2.41292672 50.32635417 -2 47 C-0.38051284 43.98382041 1.66705523 41.33487892 3.75 38.625 C4.33185059 37.84495605 4.91370117 37.06491211 5.51318359 36.26123047 C7.32969619 33.83119701 9.16464381 31.41581817 11 29 C12.14492438 27.47001711 13.28821066 25.93880673 14.4296875 24.40625 C16.86372215 21.14166848 19.30854744 17.88558431 21.76416016 14.63720703 C23.18022657 12.76124074 24.58974552 10.8803393 26 9 C13.13 8.505 13.13 8.505 0 8 C0 5.36 0 2.72 0 0 Z " fill="#0959D1" transform="translate(182,101)"/>
<path d="M0 0 C1 1 1 1 1.09765625 4.59765625 C1.0909822 6.08596867 1.07902183 7.57426432 1.0625 9.0625 C1.05798828 9.82111328 1.05347656 10.57972656 1.04882812 11.36132812 C1.0370068 13.24091871 1.01907078 15.12046899 1 17 C5.62 17 10.24 17 15 17 C15 19.31 15 21.62 15 24 C10.38 24 5.76 24 1 24 C1.11793339 29.53604375 1.24215781 35.07189613 1.37231445 40.60766602 C1.41572933 42.49239218 1.45739943 44.37715936 1.49731445 46.26196289 C1.55485893 48.96513249 1.61859804 51.66809436 1.68359375 54.37109375 C1.70030624 55.21900986 1.71701874 56.06692596 1.73423767 56.9405365 C1.46409195 60.78292076 1.46409195 60.78292076 3 64 C4.84891946 64.23363881 6.70488031 64.41303635 8.5625 64.5625 C10.08037109 64.68818359 10.08037109 64.68818359 11.62890625 64.81640625 C12.41136719 64.87699219 13.19382812 64.93757813 14 65 C14 67.31 14 69.62 14 72 C0.6118156 73.6268073 0.6118156 73.6268073 -5 71 C-8.79864697 66.48071834 -8.3900892 61.92476823 -8.29296875 56.32421875 C-8.28872391 55.3990596 -8.28447906 54.47390045 -8.28010559 53.52070618 C-8.26335993 50.5760037 -8.22571522 47.6319944 -8.1875 44.6875 C-8.17244785 42.68685887 -8.15876037 40.68620697 -8.14648438 38.68554688 C-8.11346983 33.79009893 -8.06171575 28.89516685 -8 24 C-10.64 24 -13.28 24 -16 24 C-16 21.69 -16 19.38 -16 17 C-13.36 17 -10.72 17 -8 17 C-8.03480469 16.02417969 -8.06960938 15.04835938 -8.10546875 14.04296875 C-8.13253906 12.77066406 -8.15960938 11.49835937 -8.1875 10.1875 C-8.22230469 8.92292969 -8.25710938 7.65835937 -8.29296875 6.35546875 C-8 3 -8 3 -6.65234375 1.06640625 C-4.35633846 -0.41541276 -2.67322478 -0.28139208 0 0 Z " fill="#0959D1" transform="translate(274,0)"/>
<path d="M0 0 C2.70931419 0.15481795 4.46584039 0.48172081 6.4453125 2.40234375 C7.67679642 3.89771708 8.8429837 5.4462924 10 7 C10.86625 5.824375 10.86625 5.824375 11.75 4.625 C13.94875111 2.05979037 14.93316141 1.16626256 18 0 C20.796875 -0.1953125 20.796875 -0.1953125 23.75 -0.125 C24.73484375 -0.10695313 25.7196875 -0.08890625 26.734375 -0.0703125 C27.85585937 -0.03550781 27.85585937 -0.03550781 29 0 C29.125 6.75 29.125 6.75 28 9 C25.890625 9.23828125 25.890625 9.23828125 23.25 9.3125 C19.2978423 9.62302668 18.23002085 9.81790016 15 12.375 C11.27729127 17.26105521 10.67329039 20.38347311 10.5859375 26.38671875 C10.56657135 27.20372757 10.5472052 28.02073639 10.5272522 28.86250305 C10.46749648 31.47072934 10.42108742 34.07899986 10.375 36.6875 C10.3368165 38.4563994 10.29776454 40.22528028 10.2578125 41.99414062 C10.16179832 46.32927659 10.07775265 50.6644996 10 55 C7.03 55 4.06 55 1 55 C0.98541748 53.6682373 0.97083496 52.33647461 0.95581055 50.96435547 C0.89771899 46.0104728 0.82048627 41.05703949 0.73754883 36.10351562 C0.70435062 33.9619884 0.67630286 31.82037476 0.65356445 29.67871094 C0.61992496 26.59532946 0.56760346 23.51273631 0.51171875 20.4296875 C0.50213387 18.99965897 0.50213387 18.99965897 0.49235535 17.54074097 C0.37655118 12.27254969 -0.12691467 8.59559865 -3 4 C-2.01 2.68 -1.02 1.36 0 0 Z " fill="#0959D1" transform="translate(116,101)"/>
<path d="M0 0 C1.58246707 -0.08153933 3.16616273 -0.13943557 4.75 -0.1875 C6.07257813 -0.23970703 6.07257813 -0.23970703 7.421875 -0.29296875 C10.50493103 0.05737853 11.78515964 0.85998533 14 3 C14.97639431 5.92918293 15.12136181 7.79025738 15.11352539 10.83862305 C15.11344986 11.8194133 15.11337433 12.80020355 15.11329651 13.81071472 C15.10813522 14.86704605 15.10297394 15.92337738 15.09765625 17.01171875 C15.0962413 18.09508011 15.09482635 19.17844147 15.09336853 20.29463196 C15.08776559 23.75894925 15.07521258 27.2232022 15.0625 30.6875 C15.05748538 33.03450428 15.05292241 35.38150956 15.04882812 37.72851562 C15.0377952 43.48570192 15.02052858 49.24284005 15 55 C12.03 55 9.06 55 6 55 C5.67 39.49 5.34 23.98 5 8 C3.35 7.67 1.7 7.34 0 7 C0 4.69 0 2.38 0 0 Z " fill="#0959D1" transform="translate(152,101)"/>
<path d="M0 0 C7.31556929 7.31556929 8.46740793 15.00930745 9 25 C7.52093108 25.02689216 6.04172517 25.04634621 4.5625 25.0625 C3.32693359 25.07990234 3.32693359 25.07990234 2.06640625 25.09765625 C0 25 0 25 -1 24 C-1.29804051 22.12913187 -1.56318961 20.25298297 -1.8125 18.375 C-2.88308623 11.80300717 -4.05280011 7.1247255 -9.6875 3.0625 C-14.00576059 1.67739755 -17.52807479 0.97676288 -22 2 C-29.32232941 5.9761036 -32.06616632 12.57444422 -35 20 C-35.6513499 21.34088237 -36.31235348 22.67736457 -37 24 C-37.33 24 -37.66 24 -38 24 C-37.81601982 15.20240221 -36.21007257 7.94760353 -30.39453125 1.11328125 C-21.76772363 -7.03974288 -9.3777666 -6.80347773 0 0 Z " fill="#0959D1" transform="translate(269,106)"/>
<path d="M0 0 C2.97 0 5.94 0 9 0 C9.24234375 1.02480469 9.4846875 2.04960937 9.734375 3.10546875 C10.07224003 4.466314 10.41081969 5.82698197 10.75 7.1875 C10.90726563 7.86103516 11.06453125 8.53457031 11.2265625 9.22851562 C12.35762464 13.68751061 13.742755 16.7367784 17 20 C21.33381792 22.4913445 24.97538366 23.19831284 29.875 22.25 C30.90625 21.8375 31.9375 21.425 33 21 C33.99 20.67 34.98 20.34 36 20 C37.08431094 18.25132517 37.08431094 18.25132517 38 16 C40.66666667 10.66666667 43.33333333 5.33333333 46 0 C47.97297095 3.94594189 46.0252337 8.88234945 45 13 C42.88513385 19.20713216 39.44817813 23.36788125 34 27 C27.88913329 29.92258842 21.1325758 29.93199687 14.75 27.8125 C8.78327246 25.27900855 5.14686122 20.53413526 2 15 C0.1869694 9.98087575 -0.22087333 5.30095998 0 0 Z " fill="#0959D1" transform="translate(56,128)"/>
<path d="M0 0 C1.9375 1.4375 1.9375 1.4375 3 3 C3 3.66 3 4.32 3 5 C-0.63 4.67 -4.26 4.34 -8 4 C-8.33 5.65 -8.66 7.3 -9 9 C-8.01 10.485 -8.01 10.485 -7 12 C-3.91634129 12.2502157 -3.91634129 12.2502157 -1 12 C-1 11.34 -1 10.68 -1 10 C-2.65 10 -4.3 10 -6 10 C-6 9.01 -6 8.02 -6 7 C-2.7 7 0.6 7 4 7 C2.375 13.75 2.375 13.75 -1 16 C-5.36253463 16.56551375 -7.29752588 16.49322651 -10.9375 13.9375 C-13.52001338 10.25937488 -13.72125695 8.40768137 -13 4 C-8.96677194 -1.10875554 -6.24807512 -1.31538424 0 0 Z " fill="#0959D1" transform="translate(177,178)"/>
<path d="M0 0 C3.3 0 6.6 0 10 0 C12.125 4.625 12.125 4.625 11 8 C11.33 8.33 11.66 8.66 12 9 C12.25 11.4375 12.25 11.4375 12 14 C7.7975546 16.80163026 4.99895065 16.14489712 0 16 C0 10.72 0 5.44 0 0 Z M3 2 C3 3.32 3 4.64 3 6 C4.65 6 6.3 6 8 6 C8 5.01 8 4.02 8 3 C6.35 2.67 4.7 2.34 3 2 Z M3 9 C3 10.32 3 11.64 3 13 C4.65 13 6.3 13 8 13 C8.33 12.34 8.66 11.68 9 11 C8.67 10.34 8.34 9.68 8 9 C6.35 9 4.7 9 3 9 Z " fill="#0959D1" transform="translate(250,178)"/>
<path d="M0 0 C1.32 0 2.64 0 4 0 C5.484375 1.75 5.484375 1.75 6.75 4 C7.17796875 4.7425 7.6059375 5.485 8.046875 6.25 C8.36140625 6.8275 8.6759375 7.405 9 8 C9.33 5.36 9.66 2.72 10 0 C10.99 0 11.98 0 13 0 C13 5.28 13 10.56 13 16 C8.77000325 14.94250081 8.45069644 14.79967512 6.25 11.4375 C5.82203125 10.79683594 5.3940625 10.15617188 4.953125 9.49609375 C4.63859375 9.00238281 4.3240625 8.50867188 4 8 C3.67 10.64 3.34 13.28 3 16 C2.01 16 1.02 16 0 16 C0 10.72 0 5.44 0 0 Z " fill="#0959D1" transform="translate(149,178)"/>
<path d="M0 0 C1.65 0 3.3 0 5 0 C5.83719383 2.29032311 6.6698929 4.58210957 7.5 6.875 C7.73847656 7.52597656 7.97695312 8.17695313 8.22265625 8.84765625 C10 13.7734375 10 13.7734375 10 16 C8.68 16 7.36 16 6 16 C5.67 15.34 5.34 14.68 5 14 C1.97065509 13.34227572 1.97065509 13.34227572 -1 13 C-1.33 13.99 -1.66 14.98 -2 16 C-2.99 16 -3.98 16 -5 16 C-4.34309381 12.21760329 -3.279869 8.78158474 -1.9375 5.1875 C-1.57527344 4.21167969 -1.21304688 3.23585937 -0.83984375 2.23046875 C-0.42412109 1.12638672 -0.42412109 1.12638672 0 0 Z M2 5 C1.67 6.65 1.34 8.3 1 10 C1.99 10 2.98 10 4 10 C3.67 8.35 3.34 6.7 3 5 C2.67 5 2.34 5 2 5 Z " fill="#0959D1" transform="translate(98,178)"/>
<path d="M0 0 C8.75 -0.125 8.75 -0.125 11 1 C11.125 4.375 11.125 4.375 11 8 C10.34 8.66 9.68 9.32 9 10 C9.99 11.98 10.98 13.96 12 16 C9.625 15.8125 9.625 15.8125 7 15 C5.6875 12.4375 5.6875 12.4375 5 10 C4.34 10 3.68 10 3 10 C3 11.98 3 13.96 3 16 C2.01 16 1.02 16 0 16 C0 10.72 0 5.44 0 0 Z M3 2 C3 3.65 3 5.3 3 7 C4.65 6.67 6.3 6.34 8 6 C8 5.01 8 4.02 8 3 C6.35 2.67 4.7 2.34 3 2 Z " fill="#0959D1" transform="translate(68,178)"/>
<path d="M0 0 C1.9375 2.5625 1.9375 2.5625 3 5 C-1.78481013 4.06962025 -1.78481013 4.06962025 -4.125 3.3125 C-6.32914667 2.72547363 -6.32914667 2.72547363 -9 5 C-9.25015873 8.58357241 -9.25015873 8.58357241 -9 12 C-7.00045254 12.04254356 -4.99958364 12.04080783 -3 12 C-2.67 11.67 -2.34 11.34 -2 11 C-0.33382885 10.95936168 1.33388095 10.957279 3 11 C1.5 13.5 1.5 13.5 -1 16 C-4.9722857 16.9849315 -8.00568948 16.59658631 -11.5 14.5 C-13.61417965 10.97636725 -13.69200659 8.01199061 -13 4 C-9.96566553 -1.63519259 -5.81852227 -1.45463057 0 0 Z " fill="#0959D1" transform="translate(122,178)"/>
<path d="M0 0 C0.66 0.33 1.32 0.66 2 1 C3.11836665 5.19387492 3.10811426 7.26215125 1 11 C-0.45742463 11.08096803 -1.91612807 11.13917774 -3.375 11.1875 C-4.18710938 11.22230469 -4.99921875 11.25710937 -5.8359375 11.29296875 C-6.55007812 11.19628906 -7.26421875 11.09960938 -8 11 C-10 8 -10 8 -9.75 4.375 C-9.5025 3.26125 -9.255 2.1475 -9 1 C-6.01405576 -0.49297212 -3.29146376 -0.11755228 0 0 Z " fill="#0959D1" transform="translate(164,82)"/>
<path d="M0 0 C0.99 0 1.98 0 3 0 C3 1.98 3 3.96 3 6 C5.31 6 7.62 6 10 6 C10 4.02 10 2.04 10 0 C10.99 0 11.98 0 13 0 C13 5.28 13 10.56 13 16 C12.01 16 11.02 16 10 16 C10 13.69 10 11.38 10 9 C7.69 9 5.38 9 3 9 C3 11.31 3 13.62 3 16 C2.01 16 1.02 16 0 16 C0 10.72 0 5.44 0 0 Z " fill="#095AD2" transform="translate(127,178)"/>
<path d="M0 0 C1.60875 -0.04125 3.2175 -0.0825 4.875 -0.125 C5.77992188 -0.14820313 6.68484375 -0.17140625 7.6171875 -0.1953125 C10 0 10 0 12 2 C11.625 5.625 11.625 5.625 11 9 C8.69 9.33 6.38 9.66 4 10 C4 11.98 4 13.96 4 16 C2.68 16 1.36 16 0 16 C0 10.72 0 5.44 0 0 Z M4 2 C4 3.65 4 5.3 4 7 C5.65 6.67 7.3 6.34 9 6 C8.67 5.01 8.34 4.02 8 3 C5.98491642 2.26676204 5.98491642 2.26676204 4 2 Z " fill="#0959D1" transform="translate(283,178)"/>
<path d="M0 0 C4.75 0.75 4.75 0.75 7 3 C7.66 2.01 8.32 1.02 9 0 C10.32 0.33 11.64 0.66 13 1 C12.2265625 2.0828125 12.2265625 2.0828125 11.4375 3.1875 C9.77046626 5.84710255 9.77046626 5.84710255 10.1875 8.5 C11.01782715 11.05485277 11.94180337 13.53087453 13 16 C11.68 16 10.36 16 9 16 C7.25 14 7.25 14 6 12 C5.34 13.32 4.68 14.64 4 16 C2.68 16 1.36 16 0 16 C0.309375 15.278125 0.61875 14.55625 0.9375 13.8125 C3.09249305 8.28606357 3.09249305 8.28606357 1.5625 2.6875 C1.046875 1.800625 0.53125 0.91375 0 0 Z " fill="#0959D1" transform="translate(207,178)"/>
<path d="M0 0 C2.475 0.495 2.475 0.495 5 1 C5.33 1.99 5.66 2.98 6 4 C6.66 4 7.32 4 8 4 C8.33 2.68 8.66 1.36 9 0 C10.32 0 11.64 0 13 0 C12.690625 0.7425 12.38125 1.485 12.0625 2.25 C11.711875 3.1575 11.36125 4.065 11 5 C10.731875 5.66 10.46375 6.32 10.1875 7 C9.90862552 9.97466116 11.39987436 11.56780903 13 14 C13 14.66 13 15.32 13 16 C11.125 15.6875 11.125 15.6875 9 15 C8.34 14.01 7.68 13.02 7 12 C6.01 13.32 5.02 14.64 4 16 C2.68 15.67 1.36 15.34 0 15 C0.33515625 14.50371094 0.6703125 14.00742188 1.015625 13.49609375 C2.31974029 11.32119262 3.31874725 9.44825205 4 7 C3.13355366 4.10282005 1.84925575 2.46567433 0 0 Z " fill="#0959D1" transform="translate(302,178)"/>
<path d="M0 0 C3.3 0 6.6 0 10 0 C10 0.66 10 1.32 10 2 C8.02 2 6.04 2 4 2 C4 3.32 4 4.64 4 6 C5.65 6 7.3 6 9 6 C9 6.99 9 7.98 9 9 C7.35 9 5.7 9 4 9 C4 10.32 4 11.64 4 13 C5.98 13 7.96 13 10 13 C10 13.99 10 14.98 10 16 C6.7 16 3.4 16 0 16 C0 10.72 0 5.44 0 0 Z " fill="#0959D2" transform="translate(222,178)"/>
<path d="M0 0 C1.60875 -0.061875 3.2175 -0.12375 4.875 -0.1875 C5.77992188 -0.22230469 6.68484375 -0.25710937 7.6171875 -0.29296875 C8.79667969 -0.14794922 8.79667969 -0.14794922 10 0 C12 3 12 3 11.8125 5.5625 C11 8 11 8 8 10 C5.3125 10.125 5.3125 10.125 3 10 C3 11.98 3 13.96 3 16 C2.01 16 1.02 16 0 16 C0 10.72 0 5.44 0 0 Z M3 2 C3 3.65 3 5.3 3 7 C4.65 6.67 6.3 6.34 8 6 C8 5.01 8 4.02 8 3 C6.35 2.67 4.7 2.34 3 2 Z " fill="#0959D1" transform="translate(188,178)"/>
<path d="M0 0 C2.97 0 5.94 0 9 0 C9 0.66 9 1.32 9 2 C7.02 2 5.04 2 3 2 C3 3.32 3 4.64 3 6 C4.98 6 6.96 6 9 6 C9 6.99 9 7.98 9 9 C7.02 9 5.04 9 3 9 C3 10.32 3 11.64 3 13 C4.98 13 6.96 13 9 13 C9 13.99 9 14.98 9 16 C6.03 16 3.06 16 0 16 C0 10.72 0 5.44 0 0 Z " fill="#0959D1" transform="translate(82,178)"/>
<path d="M0 0 C2.97 0 5.94 0 9 0 C9 0.66 9 1.32 9 2 C7.02 2 5.04 2 3 2 C3 3.32 3 4.64 3 6 C4.65 6 6.3 6 8 6 C8 6.99 8 7.98 8 9 C6.35 9 4.7 9 3 9 C3 10.32 3 11.64 3 13 C4.98 13 6.96 13 9 13 C9 13.99 9 14.98 9 16 C6.03 16 3.06 16 0 16 C0 10.72 0 5.44 0 0 Z " fill="#0959D1" transform="translate(318,178)"/>
<path d="M0 0 C1.32 0 2.64 0 4 0 C5.75 2 5.75 2 7 4 C7.66 2.68 8.32 1.36 9 0 C10.32 0 11.64 0 13 0 C11.22666667 5.57333333 11.22666667 5.57333333 9.9375 8 C8.71479283 10.60844196 8.3872708 13.16001412 8 16 C7.01 16 6.02 16 5 16 C4.731875 14.80375 4.46375 13.6075 4.1875 12.375 C3.2608887 8.61522466 1.79952659 5.43545985 0 2 C0 1.34 0 0.68 0 0 Z " fill="#0959D1" transform="translate(263,178)"/>
<path d="M0 0 C1.32 0 2.64 0 4 0 C4 4.29 4 8.58 4 13 C5.65 13 7.3 13 9 13 C9 13.99 9 14.98 9 16 C6.03 16 3.06 16 0 16 C0 10.72 0 5.44 0 0 Z " fill="#0959D1" transform="translate(329,178)"/>
<path d="M0 0 C0.99 0 1.98 0 3 0 C3 4.29 3 8.58 3 13 C4.98 13 6.96 13 9 13 C9 13.99 9 14.98 9 16 C6.03 16 3.06 16 0 16 C0 10.72 0 5.44 0 0 Z " fill="#0959D1" transform="translate(234,178)"/>
<path d="M0 0 C1.32 0 2.64 0 4 0 C4 5.28 4 10.56 4 16 C2.68 16 1.36 16 0 16 C0 10.72 0 5.44 0 0 Z " fill="#0959D1" transform="translate(201,178)"/>
<path d="M0 0 C0.99 0 1.98 0 3 0 C3 5.28 3 10.56 3 16 C2.01 16 1.02 16 0 16 C0 10.72 0 5.44 0 0 Z " fill="#0959D2" transform="translate(297,178)"/>
<path d="M0 0 C0.99 0 1.98 0 3 0 C3 5.28 3 10.56 3 16 C2.01 16 1.02 16 0 16 C0 10.72 0 5.44 0 0 Z " fill="#0A59D2" transform="translate(143,178)"/>
</svg>
