<?xml version="1.0" encoding="UTF-8"?>
<svg version="1.1" xmlns="http://www.w3.org/2000/svg" width="359" height="76">
<path d="M0 0 C1.65 0 3.3 0 5 0 C5 5.94 5 11.88 5 18 C6.98 17.01 8.96 16.02 11 15 C15.31382418 14.22518692 18.82165879 14.20461968 22.5 16.6875 C25.10410123 20.70215606 25.12384208 24.83226808 25.09765625 29.51953125 C25.09443359 30.54111328 25.09121094 31.56269531 25.08789062 32.61523438 C25.07951172 33.67033203 25.07113281 34.72542969 25.0625 35.8125 C25.05798828 36.88693359 25.05347656 37.96136719 25.04882812 39.06835938 C25.03707729 41.71229683 25.02064787 44.35611952 25 47 C23.34385343 47.38218767 21.67542976 47.71395102 20 48 C18.29507235 46.29507235 18.79029526 44.0549177 18.71875 41.72265625 C18.68136719 40.65208984 18.64398438 39.58152344 18.60546875 38.47851562 C18.55326172 36.78758789 18.55326172 36.78758789 18.5 35.0625 C18.43129693 32.84491753 18.35858211 30.62745457 18.28125 28.41015625 C18.25095703 27.42152588 18.22066406 26.43289551 18.18945312 25.41430664 C18.15135019 22.98947413 18.15135019 22.98947413 17 21 C15.741875 21.12375 14.48375 21.2475 13.1875 21.375 C12.47980469 21.44460937 11.77210938 21.51421875 11.04296875 21.5859375 C8.70011858 21.92665391 8.70011858 21.92665391 6 24 C5.49039309 26.51385259 5.49039309 26.51385259 5.48828125 29.4453125 C5.45283203 30.52167969 5.41738281 31.59804688 5.38085938 32.70703125 C5.35830078 33.83496094 5.33574219 34.96289062 5.3125 36.125 C5.27833984 37.26066406 5.24417969 38.39632812 5.20898438 39.56640625 C5.12630498 42.37750579 5.05722063 45.18828553 5 48 C3.35 48 1.7 48 0 48 C0 32.16 0 16.32 0 0 Z " fill="#FFFFFF" transform="translate(131,0)"/>
<path d="M0 0 C3.81777205 3.0386349 3.81777205 3.0386349 5 6 C5.39448288 9.77354022 5.23254838 13.18620664 5 17 C-1.6 17 -8.2 17 -15 17 C-13.68 19.97 -12.36 22.94 -11 26 C-5.83690648 26.07822869 -1.08097726 26.04225175 4 25 C4.33 26.32 4.66 27.64 5 29 C-0.63230499 32.75486999 -6.38085952 32.79950292 -13 32 C-17.10755869 30.07196225 -18.27545446 27.78163039 -19.8125 23.6875 C-21.84785618 16.56956869 -21.45886302 10.54713356 -18 4 C-12.56853258 -2.54561458 -7.72061486 -2.93987825 0 0 Z M-14 7 C-14.33 8.98 -14.66 10.96 -15 13 C-10.05 13 -5.1 13 0 13 C-0.83243395 6.74164883 -0.83243395 6.74164883 -5 3 C-9.44537485 2.11092503 -11.37004004 3.43076863 -14 7 Z " fill="#FFFFFF" transform="translate(354,16)"/>
<path d="M0 0 C5.79449376 5.79449376 5 7.97304556 5 17 C-1.6 17 -8.2 17 -15 17 C-13.68 19.97 -12.36 22.94 -11 26 C-3.93888131 26.14291015 -3.93888131 26.14291015 3 25 C3.33 26.32 3.66 27.64 4 29 C-1.43256656 32.52382696 -6.71500421 32.98057141 -13 32 C-16.93025393 30.24889676 -18.70067449 27.70749667 -20.375 23.75 C-21.60234232 16.38594609 -21.80232619 9.66915943 -18 3 C-12.40539032 -2.59460968 -7.17314994 -2.7163031 0 0 Z M-12.25 4.625 C-14.52054908 7.33116615 -14.52054908 7.33116615 -15 13 C-10.05 13 -5.1 13 0 13 C-0.4021875 11.081875 -0.4021875 11.081875 -0.8125 9.125 C-0.96332031 8.40570312 -1.11414062 7.68640625 -1.26953125 6.9453125 C-1.92308838 4.62953451 -1.92308838 4.62953451 -5 3 C-8.27810803 2.49567569 -9.5365062 2.66525448 -12.25 4.625 Z " fill="#FFFFFF" transform="translate(53,16)"/>
<path d="M0 0 C2.475 0.495 2.475 0.495 5 1 C5 1.66 5 2.32 5 3 C5.804375 2.505 6.60875 2.01 7.4375 1.5 C11.78217789 -0.32933806 15.34694088 -0.80499692 20 0 C23.28898551 2.30228986 24.28247108 4.1510882 25 8 C25.08026745 9.87877624 25.10765872 11.7601615 25.09765625 13.640625 C25.09443359 14.71054687 25.09121094 15.78046875 25.08789062 16.8828125 C25.07951172 17.99398437 25.07113281 19.10515625 25.0625 20.25 C25.05798828 21.37664063 25.05347656 22.50328125 25.04882812 23.6640625 C25.03705397 26.44276217 25.0206084 29.22135409 25 32 C23.34385343 32.38218767 21.67542976 32.71395102 20 33 C18.29507235 31.29507235 18.79029526 29.0549177 18.71875 26.72265625 C18.68136719 25.65208984 18.64398438 24.58152344 18.60546875 23.47851562 C18.55326172 21.78758789 18.55326172 21.78758789 18.5 20.0625 C18.43129693 17.84491753 18.35858211 15.62745457 18.28125 13.41015625 C18.25095703 12.42152588 18.22066406 11.43289551 18.18945312 10.41430664 C18.15135019 7.98947413 18.15135019 7.98947413 17 6 C12.18550592 6.48144941 9.39828259 6.8008587 5 9 C5 16.92 5 24.84 5 33 C3.35 33 1.7 33 0 33 C0 22.11 0 11.22 0 0 Z " fill="#FFFFFF" transform="translate(301,15)"/>
<path d="M0 0 C2.475 0.495 2.475 0.495 5 1 C5 1.66 5 2.32 5 3 C5.804375 2.505 6.60875 2.01 7.4375 1.5 C11.58752295 -0.24737808 15.56950526 -1.22442764 20 0 C23.65706809 3.72905092 24.51129527 6.22082568 24.609375 11.39453125 C24.64160156 12.59658203 24.67382812 13.79863281 24.70703125 15.03710938 C24.72121094 16.28298828 24.73539063 17.52886719 24.75 18.8125 C24.77964844 20.07771484 24.80929688 21.34292969 24.83984375 22.64648438 C24.91043777 25.76438676 24.9631891 28.88154575 25 32 C23.34385343 32.38218767 21.67542976 32.71395102 20 33 C18.29507235 31.29507235 18.79029526 29.0549177 18.71875 26.72265625 C18.68136719 25.65208984 18.64398437 24.58152344 18.60546875 23.47851562 C18.55326172 21.78758789 18.55326172 21.78758789 18.5 20.0625 C18.43129693 17.84491753 18.35858211 15.62745457 18.28125 13.41015625 C18.25095703 12.42152588 18.22066406 11.43289551 18.18945312 10.41430664 C18.15135019 7.98947413 18.15135019 7.98947413 17 6 C12.33635799 5.67462963 9.70861961 6.08865807 6 9 C5.22207053 11.58973587 5.22207053 11.58973587 5.29296875 14.54296875 C5.26396484 15.61611328 5.23496094 16.68925781 5.20507812 17.79492188 C5.19927734 18.91447266 5.19347656 20.03402344 5.1875 21.1875 C5.16236328 22.31865234 5.13722656 23.44980469 5.11132812 24.61523438 C5.05235616 27.4105053 5.01614967 30.20420675 5 33 C3.35 33 1.7 33 0 33 C0 22.11 0 11.22 0 0 Z " fill="#FFFFFF" transform="translate(0,15)"/>
<path d="M0 0 C7.26 0 14.52 0 22 0 C23 5 23 5 21.96777344 7.15649414 C21.43700195 7.85895264 20.90623047 8.56141113 20.359375 9.28515625 C19.49505859 10.45208008 19.49505859 10.45208008 18.61328125 11.64257812 C17.99839844 12.44115234 17.38351563 13.23972656 16.75 14.0625 C16.15058594 14.86494141 15.55117187 15.66738281 14.93359375 16.49414062 C13.30238856 18.67330055 11.65327089 20.83756959 10 23 C9.01 24.32 8.02 25.64 7 27 C12.28 27 17.56 27 23 27 C23 28.65 23 30.3 23 32 C20.56283785 33.21858107 18.96725943 33.12925575 16.24609375 33.1328125 C15.30958984 33.13410156 14.37308594 33.13539062 13.40820312 33.13671875 C12.42787109 33.13285156 11.44753906 33.12898438 10.4375 33.125 C8.96120117 33.13080078 8.96120117 33.13080078 7.45507812 33.13671875 C6.51986328 33.13542969 5.58464844 33.13414063 4.62109375 33.1328125 C3.7592749 33.13168457 2.89745605 33.13055664 2.00952148 33.12939453 C0 33 0 33 -1 32 C-1.55333133 29.29482463 -1.32791045 27.56316364 0.06445312 25.171875 C1.57129375 23.06602895 3.14064011 21.028542 4.75 19 C5.28882813 18.30132812 5.82765625 17.60265625 6.3828125 16.8828125 C9.21464626 13.22214935 12.10867742 9.61415322 15 6 C10.05 5.67 5.1 5.34 0 5 C0 3.35 0 1.7 0 0 Z " fill="#FFFFFF" transform="translate(237,15)"/>
<path d="M0 0 C2.29296875 -0.2421875 2.29296875 -0.2421875 5 0 C6.80078125 1.6796875 6.80078125 1.6796875 8.3125 3.875 C8.82425781 4.59429688 9.33601563 5.31359375 9.86328125 6.0546875 C11 8 11 8 11 10 C14.27286682 7.2180632 15.96427697 3.72045933 18 0 C19.98 0 21.96 0 24 0 C22.57250019 3.79049707 20.83763458 7.27122456 18.875 10.8125 C18.33617188 11.78832031 17.79734375 12.76414062 17.2421875 13.76953125 C16.83226563 14.50558594 16.42234375 15.24164063 16 16 C16.66128906 16.97582031 17.32257813 17.95164062 18.00390625 18.95703125 C18.85731167 20.24182842 19.71014683 21.52700451 20.5625 22.8125 C21.21895508 23.77639648 21.21895508 23.77639648 21.88867188 24.75976562 C23.00534154 26.4567518 24.01064506 28.22577058 25 30 C24.67 30.99 24.34 31.98 24 33 C20.56140181 32.72087372 19.3071956 32.34760044 16.98046875 29.71484375 C16.38878906 28.79832031 15.79710938 27.88179687 15.1875 26.9375 C14.58292969 26.01839844 13.97835937 25.09929688 13.35546875 24.15234375 C12.90816406 23.44207031 12.46085937 22.73179688 12 22 C9.77615958 24.70037765 7.83333946 27.28493576 6.0625 30.3125 C4 33 4 33 1.25 33.375 C0.13625 33.189375 0.13625 33.189375 -1 33 C-0.30579349 27.53560308 2.50028429 24.04010875 5.6015625 19.62109375 C7.18280054 17.19667458 7.18280054 17.19667458 6.90234375 14.9765625 C5.34429331 11.56369011 3.29389322 8.49515057 1.27734375 5.33984375 C0 3 0 3 0 0 Z " fill="#FFFFFF" transform="translate(64,15)"/>
<path d="M0 0 C1.67542976 0.28604898 3.34385343 0.61781233 5 1 C5 3.97 5 6.94 5 10 C7.64 10 10.28 10 13 10 C13 11.65 13 13.3 13 15 C10.36 15 7.72 15 5 15 C5 22.59 5 30.18 5 38 C7.31 38 9.62 38 12 38 C12 39.65 12 41.3 12 43 C10.58430936 43.08167446 9.16723195 43.13949698 7.75 43.1875 C6.56664063 43.23970703 6.56664063 43.23970703 5.359375 43.29296875 C2.3382374 42.91782749 1.16917127 42.12854163 -1 40 C-1.45410156 37.36450195 -1.45410156 37.36450195 -1.390625 34.23828125 C-1.37773438 33.12001953 -1.36484375 32.00175781 -1.3515625 30.84960938 C-1.31804687 29.68236328 -1.28453125 28.51511719 -1.25 27.3125 C-1.23195313 26.13365234 -1.21390625 24.95480469 -1.1953125 23.74023438 C-1.14811859 20.82601074 -1.08229077 17.91340969 -1 15 C-2.65 14.67 -4.3 14.34 -6 14 C-5.67 12.68 -5.34 11.36 -5 10 C-3.68 10 -2.36 10 -1 10 C-1.01160156 9.36191406 -1.02320312 8.72382813 -1.03515625 8.06640625 C-1.04417969 7.24011719 -1.05320312 6.41382813 -1.0625 5.5625 C-1.07410156 4.73878906 -1.08570312 3.91507813 -1.09765625 3.06640625 C-1 1 -1 1 0 0 Z " fill="#FFFFFF" transform="translate(97,5)"/>
<path d="M0 0 C4.75 0.75 4.75 0.75 7 3 C7.515625 2.505 8.03125 2.01 8.5625 1.5 C11.80680017 -0.49649241 14.26217334 -0.21564385 18 0 C18 1.65 18 3.3 18 5 C17.36191406 5.10957031 16.72382813 5.21914063 16.06640625 5.33203125 C15.24011719 5.49058594 14.41382813 5.64914063 13.5625 5.8125 C12.73878906 5.96332031 11.91507813 6.11414063 11.06640625 6.26953125 C10.38449219 6.51058594 9.70257813 6.75164063 9 7 C8.00544091 9.98367726 7.80440368 12.2004192 7.68359375 15.32421875 C7.64169922 16.35224609 7.59980469 17.38027344 7.55664062 18.43945312 C7.51732422 19.51130859 7.47800781 20.58316406 7.4375 21.6875 C7.39431641 22.77095703 7.35113281 23.85441406 7.30664062 24.97070312 C7.20053162 27.64700791 7.09847639 30.32340526 7 33 C5.33388095 33.042721 3.66617115 33.04063832 2 33 C0.21008254 31.21008254 0.78502972 28.52324 0.71875 26.1015625 C0.68136719 24.90015625 0.64398438 23.69875 0.60546875 22.4609375 C0.57066406 21.19507812 0.53585938 19.92921875 0.5 18.625 C0.43119713 16.13790362 0.35846481 13.65091193 0.28125 11.1640625 C0.25095703 10.05498535 0.22066406 8.9459082 0.18945312 7.80322266 C0.11254099 4.9183928 0.11254099 4.9183928 -1 2 C-0.67 1.34 -0.34 0.68 0 0 Z " fill="#FFFFFF" transform="translate(198,15)"/>
<path d="M0 0 C5.4375 -0.3625 5.4375 -0.3625 7.6809082 1.08325195 C9.67153642 3.97579724 9.33697656 6.37885174 9.29296875 9.85546875 C9.28872391 10.51710526 9.28447906 11.17874176 9.28010559 11.86042786 C9.26333693 13.9698691 9.22569099 16.07834846 9.1875 18.1875 C9.17245068 19.61912681 9.1587627 21.05076862 9.14648438 22.48242188 C9.1134403 25.98859288 9.06167167 29.49420254 9 33 C7.02 33 5.04 33 3 33 C3 23.76 3 14.52 3 5 C2.01 5 1.02 5 0 5 C0 3.35 0 1.7 0 0 Z " fill="#FFFFFF" transform="translate(220,15)"/>
<path d="M0 0 C3.19972296 2.51893084 5.76680802 5.07620734 7 9 C7.15035617 11.69085704 7.08999513 14.30014607 7 17 C5.35 17 3.7 17 2 17 C1.82984375 16.31292969 1.6596875 15.62585938 1.484375 14.91796875 C1.24203125 14.01691406 0.9996875 13.11585937 0.75 12.1875 C0.51796875 11.29417969 0.2859375 10.40085937 0.046875 9.48046875 C-1.1799728 6.5735719 -2.29296301 5.56723194 -5 4 C-8.48568115 3.4916715 -10.21839354 3.44827779 -13.125 5.5 C-15.5866013 8.78213507 -17.30115029 12.27698894 -19 16 C-19.33 16 -19.66 16 -20 16 C-19.97157041 9.73127618 -18.88433729 5.99494526 -14.66796875 1.3125 C-10.44114741 -2.01352335 -4.93834286 -1.296315 0 0 Z " fill="#FFFFFF" transform="translate(286,16)"/>
<path d="M0 0 C1.98 0 3.96 0 6 0 C6.10957031 0.61488281 6.21914062 1.22976562 6.33203125 1.86328125 C6.49058594 2.67152344 6.64914063 3.47976562 6.8125 4.3125 C6.96332031 5.11300781 7.11414063 5.91351563 7.26953125 6.73828125 C8.08935746 9.27667364 8.93551653 10.34533956 11 12 C13.97374806 13.09559139 15.47850333 13.16948642 18.5 12.1875 C22.30396878 8.85902732 23.98466546 4.57095026 26 0 C26.33 0 26.66 0 27 0 C26.73260866 6.01630523 26.12635909 10.30053548 22 15 C18.08700456 17.32664593 14.48421565 17.39335225 10 17 C5.21031031 15.40343677 2.93535611 13.2894918 0.6796875 8.91796875 C-0.38311321 5.91891616 -0.25577809 3.1332816 0 0 Z " fill="#FFFFFF" transform="translate(164,31)"/>
<path d="M0 0 C1.32 0.33 2.64 0.66 4 1 C4.33 1.66 4.66 2.32 5 3 C5.33 2.01 5.66 1.02 6 0 C6.99 0 7.98 0 9 0 C9.33 0.66 9.66 1.32 10 2 C10.66 1.34 11.32 0.68 12 0 C14.5 -0.25 14.5 -0.25 17 0 C19 2 19 2 19.25 5 C19 8 19 8 17 10 C14.5 10.25 14.5 10.25 12 10 C11.34 9.34 10.68 8.68 10 8 C9.67 8.66 9.34 9.32 9 10 C8.01 10 7.02 10 6 10 C5.34 9.01 4.68 8.02 4 7 C3.67 7.99 3.34 8.98 3 10 C2.01 10 1.02 10 0 10 C0 6.7 0 3.4 0 0 Z M13 2 C12.67 3.65 12.34 5.3 12 7 C13.32 7.33 14.64 7.66 16 8 C16.33 7.34 16.66 6.68 17 6 C16.01 6 15.02 6 14 6 C14 5.34 14 4.68 14 4 C14.99 3.67 15.98 3.34 17 3 C15.68 2.67 14.36 2.34 13 2 Z " fill="#FFFFFF" transform="translate(133,61)"/>
<path d="M0 0 C3.3 0 6.6 0 10 0 C10.33 0.66 10.66 1.32 11 2 C12.32 1.34 13.64 0.68 15 0 C14.21302675 3.41021743 13.12880057 6.68885166 12 10 C11.34 10 10.68 10 10 10 C9.34 8.02 8.68 6.04 8 4 C6.35920758 5.64079242 6.39887658 7.77768765 6 10 C4.02 10 2.04 10 0 10 C0 6.7 0 3.4 0 0 Z M2 2 C2 2.66 2 3.32 2 4 C2.66 4 3.32 4 4 4 C4 3.34 4 2.68 4 2 C3.34 2 2.68 2 2 2 Z M2 6 C2 6.66 2 7.32 2 8 C2.66 8 3.32 8 4 8 C4 7.34 4 6.68 4 6 C3.34 6 2.68 6 2 6 Z " fill="#FFFFFF" transform="translate(193,61)"/>
<path d="M0 0 C0.598125 0.185625 1.19625 0.37125 1.8125 0.5625 C4.16408762 1.22093687 4.16408762 1.22093687 7 0 C6.814375 0.969375 6.62875 1.93875 6.4375 2.9375 C6.293125 3.948125 6.14875 4.95875 6 6 C6.33 6.33 6.66 6.66 7 7 C7.33 4.69 7.66 2.38 8 0 C9.98 0 11.96 0 14 0 C14 0.66 14 1.32 14 2 C13.01 2 12.02 2 11 2 C11 2.66 11 3.32 11 4 C11.99 4 12.98 4 14 4 C14 4.66 14 5.32 14 6 C13.01 6 12.02 6 11 6 C11 6.66 11 7.32 11 8 C11.99 8 12.98 8 14 8 C14 8.66 14 9.32 14 10 C9.33333333 10 4.66666667 10 0 10 C0.185625 9.0925 0.37125 8.185 0.5625 7.25 C0.95734621 4.31685676 0.94691572 2.7355343 0 0 Z " fill="#FFFFFF" transform="translate(168,61)"/>
<path d="M0 0 C3.66666667 0 7.33333333 0 11 0 C11 3.3 11 6.6 11 10 C10.01 10 9.02 10 8 10 C7.67 8.68 7.34 7.36 7 6 C5.68 6 4.36 6 3 6 C3 7.32 3 8.64 3 10 C2.01 10 1.02 10 0 10 C0 6.7 0 3.4 0 0 Z M3 2 C3 2.66 3 3.32 3 4 C3.66 4 4.32 4 5 4 C5 3.34 5 2.68 5 2 C4.34 2 3.68 2 3 2 Z " fill="#FFFFFF" transform="translate(156,61)"/>
<path d="M0 0 C1.99954746 -0.04254356 4.00041636 -0.04080783 6 0 C7 1 7 1 7.09765625 3.06640625 C7.08605469 3.89011719 7.07445313 4.71382813 7.0625 5.5625 C7.05347656 6.38878906 7.04445313 7.21507813 7.03515625 8.06640625 C7.01775391 9.02353516 7.01775391 9.02353516 7 10 C4.66666667 10 2.33333333 10 0 10 C0 6.7 0 3.4 0 0 Z M3 2 C3 2.66 3 3.32 3 4 C3.66 4 4.32 4 5 4 C5 3.34 5 2.68 5 2 C4.34 2 3.68 2 3 2 Z " fill="#FFFFFF" transform="translate(86,61)"/>
<path d="M0 0 C0.66 1.32 1.32 2.64 2 4 C-0.97 3.505 -0.97 3.505 -4 3 C-4 4.32 -4 5.64 -4 7 C-2.02 7 -0.04 7 2 7 C1.01 8.485 1.01 8.485 0 10 C-2.31 9.67 -4.62 9.34 -7 9 C-8.33157895 3.55263158 -8.33157895 3.55263158 -6.875 1.125 C-4.46277487 -0.32233508 -2.7648665 -0.22417836 0 0 Z " fill="#FFFFFF" transform="translate(118,61)"/>
<path d="M0 0 C0.99 0 1.98 0 3 0 C3.99 3.3 4.98 6.6 6 10 C5.01 10 4.02 10 3 10 C3 9.34 3 8.68 3 8 C1.02 8.66 -0.96 9.32 -3 10 C-2.01 6.7 -1.02 3.4 0 0 Z M1 4 C2 6 2 6 2 6 Z " fill="#FFFFFF" transform="translate(104,61)"/>
<path d="M0 0 C1.1446875 0.2784375 1.1446875 0.2784375 2.3125 0.5625 C5.08967375 1.22819173 5.08967375 1.22819173 8 0 C7.814375 0.9075 7.62875 1.815 7.4375 2.75 C7.04265379 5.68314324 7.05308428 7.2644657 8 10 C5.525 9.01 5.525 9.01 3 8 C3 8.66 3 9.32 3 10 C2.01 9.67 1.02 9.34 0 9 C0.37125 8.443125 0.7425 7.88625 1.125 7.3125 C2.29515863 4.94283647 2.29515863 4.94283647 1.125 2.25 C0.75375 1.5075 0.3825 0.765 0 0 Z " fill="#FFFFFF" transform="translate(223,61)"/>
<path d="M0 0 C1.99954746 -0.04254356 4.00041636 -0.04080783 6 0 C7 1 7 1 7.0625 3.5625 C7.041875 4.366875 7.02125 5.17125 7 6 C5.68 6 4.36 6 3 6 C3 7.32 3 8.64 3 10 C2.01 10 1.02 10 0 10 C0 6.7 0 3.4 0 0 Z M3 2 C3 2.66 3 3.32 3 4 C3.66 4 4.32 4 5 4 C5 3.34 5 2.68 5 2 C4.34 2 3.68 2 3 2 Z " fill="#FFFFFF" transform="translate(212,61)"/>
<path d="M0 0 C1.4540625 0.0309375 1.4540625 0.0309375 2.9375 0.0625 C3.5625 2.4375 3.5625 2.4375 3.9375 5.0625 C1.9375 7.0625 1.9375 7.0625 -0.625 7.25 C-3.0625 7.0625 -3.0625 7.0625 -4.0625 6.0625 C-4.1875 3.5625 -4.1875 3.5625 -4.0625 1.0625 C-3.0625 0.0625 -3.0625 0.0625 0 0 Z " fill="#FFFFFF" transform="translate(225.0625,3.9375)"/>
<path d="M0 0 C1.98 0 3.96 0 6 0 C6 0.66 6 1.32 6 2 C5.01 2 4.02 2 3 2 C3 2.66 3 3.32 3 4 C3.99 4 4.98 4 6 4 C6 4.66 6 5.32 6 6 C5.01 6 4.02 6 3 6 C3 6.66 3 7.32 3 8 C3.99 8 4.98 8 6 8 C6 8.66 6 9.32 6 10 C4.02 10 2.04 10 0 10 C0 6.7 0 3.4 0 0 Z " fill="#FFFFFF" transform="translate(232,61)"/>
<path d="M0 0 C0.66 0 1.32 0 2 0 C2 1.32 2 2.64 2 4 C3.32 4 4.64 4 6 4 C6 2.68 6 1.36 6 0 C6.66 0 7.32 0 8 0 C8 3.3 8 6.6 8 10 C7.34 10 6.68 10 6 10 C6 8.68 6 7.36 6 6 C4.68 6 3.36 6 2 6 C2 7.32 2 8.64 2 10 C1.34 10 0.68 10 0 10 C0 6.7 0 3.4 0 0 Z " fill="#FFFFFF" transform="translate(121,61)"/>
<path d="M0 0 C1.65 0 3.3 0 5 0 C5 0.66 5 1.32 5 2 C4.01 2 3.02 2 2 2 C2 2.66 2 3.32 2 4 C2.99 4 3.98 4 5 4 C5 4.66 5 5.32 5 6 C4.01 6 3.02 6 2 6 C2 6.66 2 7.32 2 8 C2.99 8 3.98 8 5 8 C5 8.66 5 9.32 5 10 C3.35 10 1.7 10 0 10 C0 6.7 0 3.4 0 0 Z " fill="#FFFFFF" transform="translate(95,61)"/>
<path d="M0 0 C0.99 0 1.98 0 3 0 C3 2.64 3 5.28 3 8 C3.99 8 4.98 8 6 8 C6 8.66 6 9.32 6 10 C4.02 10 2.04 10 0 10 C0 6.7 0 3.4 0 0 Z " fill="#FFFFFF" transform="translate(183,61)"/>
<path d="M0 0 C0.66 0 1.32 0 2 0 C2 2.64 2 5.28 2 8 C2.99 8 3.98 8 5 8 C5 8.66 5 9.32 5 10 C3.35 10 1.7 10 0 10 C0 6.7 0 3.4 0 0 Z " fill="#FFFFFF" transform="translate(239,61)"/>
<path d="M0 0 C0.66 0 1.32 0 2 0 C2 3.3 2 6.6 2 10 C1.34 10 0.68 10 0 10 C0 6.7 0 3.4 0 0 Z " fill="#FFFFFF" transform="translate(220,61)"/>
<path d="M0 0 C0.66 0 1.32 0 2 0 C2 3.3 2 6.6 2 10 C1.34 10 0.68 10 0 10 C0 6.7 0 3.4 0 0 Z " fill="#FFFFFF" transform="translate(130,61)"/>
</svg>
