<svg width="38" height="38" viewBox="0 0 38 38" fill="none" xmlns="http://www.w3.org/2000/svg">
<path d="M19.3147 37.513C9.17741 37.5213 0.847094 29.2573 0.863672 19.2112C0.888539 8.70091 8.82098 0.710451 19.2484 0.693874C29.7752 0.677296 37.7243 8.62631 37.7574 19.2112C37.7823 29.249 29.4685 37.5047 19.3147 37.513ZM29.568 19.0951C29.568 17.3462 29.5846 15.5972 29.568 13.8566C29.5349 10.9058 27.4792 8.83354 24.5367 8.80867C21.0802 8.7838 17.6238 8.7838 14.1673 8.80867C11.1502 8.82525 9.07794 10.8892 9.05307 13.898C9.02821 17.3545 9.02821 20.8109 9.05307 24.2674C9.07794 27.2099 11.1667 29.2987 14.0927 29.3236C17.5906 29.3485 21.0802 29.3568 24.5781 29.3236C27.4543 29.2987 29.5266 27.2099 29.568 24.3503C29.5929 22.5931 29.568 20.8441 29.568 19.0951Z" fill="#0A5AD2"/>
<path d="M19.4142 12.6299C21.0388 12.6299 22.6717 12.6465 24.2963 12.6216C25.291 12.6051 25.7551 13.0444 25.7551 14.0473C25.7386 17.3795 25.7386 20.7116 25.7551 24.0437C25.7634 25.0384 25.3241 25.5108 24.3295 25.5025C20.9973 25.4943 17.6652 25.4943 14.3331 25.5025C13.3467 25.5025 12.866 25.0715 12.866 24.0686C12.8743 20.7364 12.8743 17.4043 12.866 14.0722C12.866 13.0029 13.3799 12.5885 14.416 12.6134C16.082 12.6548 17.7481 12.6299 19.4142 12.6299ZM24.5035 19.0538C24.4952 16.1859 22.0749 13.7904 19.2401 13.8235C16.4468 13.865 14.1259 16.2522 14.1342 19.0787C14.1425 21.9052 16.4799 24.2841 19.265 24.3089C22.0998 24.3421 24.5118 21.9135 24.5035 19.0538Z" fill="#0A5AD2"/>
<path d="M19.3727 17.645C20.2016 17.7942 20.7404 18.2833 20.6824 19.1619C20.6326 19.9659 20.1104 20.4964 19.2898 20.4632C18.4112 20.4301 17.9139 19.8416 17.9636 18.9795C17.9968 18.1755 18.5273 17.7196 19.3727 17.645Z" fill="#0A5AD2"/>
</svg>
